<svg width="253" height="224" viewBox="0 0 253 224" fill="none" xmlns="http://www.w3.org/2000/svg">
<mask id="mask0" mask-type="alpha" maskUnits="userSpaceOnUse" x="0" y="0" width="253" height="224">
<path d="M0 0L206 11.5L253 223.802H206L0 212V0Z" fill="#EBEBF2"/>
</mask>
<g mask="url(#mask0)">
<path d="M136.132 299.4C136.132 290.356 134.84 292.169 134.84 283.25C134.84 274.331 136.132 276.019 136.132 267.1C136.132 258.181 134.84 259.869 134.84 250.95C134.84 242.031 136.132 243.719 136.132 234.8C136.132 225.881 134.84 227.569 134.84 218.65C134.84 209.731 136.132 211.419 136.132 202.5C136.132 193.581 134.84 195.269 134.84 186.35C134.84 177.431 136.132 179.119 136.132 170.2C136.132 161.281 134.84 162.969 134.84 154.05C134.84 145.131 136.132 146.819 136.132 137.9C136.132 128.981 134.84 130.669 134.84 121.75C134.84 112.831 136.132 114.519 136.132 105.6C136.132 96.6805 134.84 98.3693 134.84 89.4499C134.84 80.5305 136.132 82.2193 136.132 73.2999C136.132 64.3805 134.84 66.0693 134.84 57.1499C134.84 48.2305 136.051 50.0439 136.132 40.9999" stroke="#FFC91B" stroke-width="2.584" stroke-linecap="round" stroke-linejoin="round"/>
<path d="M161.972 364C161.972 354.956 160.68 356.769 160.68 347.85C160.68 338.931 161.972 340.619 161.972 331.7C161.972 322.781 160.68 324.469 160.68 315.55C160.68 306.631 161.972 308.319 161.972 299.4C161.972 290.481 160.68 292.169 160.68 283.25C160.68 274.331 161.972 276.019 161.972 267.1C161.972 258.181 160.68 259.869 160.68 250.95C160.68 242.031 161.972 243.719 161.972 234.8C161.972 225.881 160.68 227.569 160.68 218.65C160.68 209.731 161.972 211.419 161.972 202.5C161.972 193.581 160.68 195.269 160.68 186.35C160.68 177.431 161.972 179.119 161.972 170.2C161.972 161.281 160.68 162.969 160.68 154.05C160.68 145.131 161.972 146.819 161.972 137.9C161.972 128.981 160.68 130.669 160.68 121.75C160.68 112.831 161.891 114.644 161.972 105.6" stroke="#00AF91" stroke-width="2.584" stroke-linecap="round" stroke-linejoin="round"/>
<path d="M110.292 331.7C110.292 322.656 109 324.47 109 315.55C109 306.631 110.292 308.32 110.292 299.4C110.292 290.481 109 292.17 109 283.25C109 274.331 110.292 276.02 110.292 267.1C110.292 258.181 109 259.87 109 250.95C109 242.031 110.292 243.72 110.292 234.8C110.292 225.881 109 227.57 109 218.65C109 209.731 110.292 211.42 110.292 202.5C110.292 193.581 109 195.27 109 186.35C109 177.431 110.292 179.12 110.292 170.2C110.292 161.281 109 162.97 109 154.05C109 145.131 110.292 146.82 110.292 137.9C110.292 128.981 109 130.67 109 121.75C109 112.831 110.292 114.52 110.292 105.6C110.292 96.6808 109 98.3696 109 89.4502C109 80.5308 110.211 82.3442 110.292 73.3002" stroke="#FF7A1A" stroke-width="2.584" stroke-linecap="round" stroke-linejoin="round"/>
</g>
</svg>
