<svg width="57" height="327" viewBox="0 0 57 327" fill="none" xmlns="http://www.w3.org/2000/svg">
<g opacity="0.35">
<path d="M27.8401 66.6001C27.8401 75.6441 29.1321 73.8307 29.1321 82.7501C29.1321 91.6695 27.8401 89.9807 27.8401 98.9001C27.8401 107.819 29.1321 106.131 29.1321 115.05C29.1321 123.969 27.8401 122.281 27.8401 131.2C27.8401 140.119 29.1321 138.431 29.1321 147.35C29.1321 156.269 27.8401 154.581 27.8401 163.5C27.8401 172.419 29.1321 170.731 29.1321 179.65C29.1321 188.569 27.8401 186.881 27.8401 195.8C27.8401 204.719 29.1321 203.031 29.1321 211.95C29.1321 220.869 27.8401 219.181 27.8401 228.1C27.8401 237.019 29.1321 235.331 29.1321 244.25C29.1321 253.169 27.8401 251.481 27.8401 260.4C27.8401 269.319 29.1321 267.631 29.1321 276.55C29.1321 285.469 27.8401 283.781 27.8401 292.7C27.8401 301.619 29.1321 299.931 29.1321 308.85C29.1321 317.769 27.9208 315.956 27.8401 325" stroke="#00AF91" stroke-width="2.584" stroke-linecap="round" stroke-linejoin="round"/>
<path d="M2.00024 2C2.00024 11.044 3.29224 9.2306 3.29224 18.15C3.29224 27.0694 2.00024 25.3806 2.00023 34.3C2.00023 43.2194 3.29223 41.5306 3.29223 50.45C3.29223 59.3694 2.00023 57.6806 2.00023 66.6C2.00023 75.5194 3.29223 73.8306 3.29223 82.75C3.29223 91.6694 2.00023 89.9806 2.00023 98.9C2.00023 107.819 3.29223 106.131 3.29223 115.05C3.29223 123.969 2.00023 122.281 2.00023 131.2C2.00023 140.119 3.29223 138.431 3.29223 147.35C3.29223 156.269 2.00023 154.581 2.00023 163.5C2.00023 172.419 3.29223 170.731 3.29223 179.65C3.29223 188.569 2.00023 186.881 2.00023 195.8C2.00023 204.719 3.29223 203.031 3.29223 211.95C3.29223 220.869 2.00023 219.181 2.00023 228.1C2.00023 237.019 3.29223 235.331 3.29223 244.25C3.29223 253.169 2.08098 251.356 2.00023 260.4" stroke="#1089FF" stroke-width="2.584" stroke-linecap="round" stroke-linejoin="round"/>
<path d="M53.6802 34.2998C53.6802 43.3438 54.9722 41.5304 54.9722 50.4498C54.9722 59.3692 53.6802 57.6804 53.6802 66.5998C53.6802 75.5192 54.9722 73.8304 54.9722 82.7498C54.9722 91.6692 53.6802 89.9804 53.6802 98.8998C53.6802 107.819 54.9722 106.13 54.9722 115.05C54.9722 123.969 53.6802 122.28 53.6802 131.2C53.6802 140.119 54.9722 138.43 54.9722 147.35C54.9722 156.269 53.6802 154.58 53.6802 163.5C53.6802 172.419 54.9722 170.73 54.9722 179.65C54.9722 188.569 53.6802 186.88 53.6802 195.8C53.6802 204.719 54.9722 203.03 54.9722 211.95C54.9722 220.869 53.6802 219.18 53.6802 228.1C53.6802 237.019 54.9722 235.33 54.9722 244.25C54.9722 253.169 53.6802 251.48 53.6802 260.4C53.6802 269.319 54.9722 267.63 54.9722 276.55C54.9722 285.469 53.7609 283.656 53.6802 292.7" stroke="#FF7A1A" stroke-width="2.584" stroke-linecap="round" stroke-linejoin="round"/>
</g>
</svg>
